<svg id="visual" viewBox="0 0 675 900" width="675" height="900" xmlns="http://www.w3.org/2000/svg" xmlns:xlink="http://www.w3.org/1999/xlink" version="1.1"><rect x="0" y="0" width="675" height="900" fill="#111113"></rect><defs><linearGradient id="grad1_0" x1="0%" y1="0%" x2="100%" y2="100%"><stop offset="30%" stop-color="#111113" stop-opacity="1"></stop><stop offset="70%" stop-color="#111113" stop-opacity="1"></stop></linearGradient></defs><defs><linearGradient id="grad2_0" x1="0%" y1="0%" x2="100%" y2="100%"><stop offset="30%" stop-color="#111113" stop-opacity="1"></stop><stop offset="70%" stop-color="#111113" stop-opacity="1"></stop></linearGradient></defs><g transform="translate(675, 0)"><path d="M0 421.9C-43.7 386.9 -87.4 351.9 -138.9 335.4C-190.4 318.8 -249.7 320.8 -294.9 294.9C-340 269 -371 215.2 -389.8 161.4C-408.6 107.7 -415.2 53.8 -421.9 0L0 0Z" fill="#114837"></path></g><g transform="translate(0, 900)"><path d="M0 -421.9C44.2 -387.4 88.4 -352.9 138.9 -335.4C189.4 -317.8 246.2 -317.2 291.3 -291.3C336.5 -265.4 369.9 -214.2 389.8 -161.4C409.6 -108.7 415.7 -54.3 421.9 0L0 0Z" fill="#114837"></path></g></svg>